<svg width="401" height="116" viewBox="0 0 401 116" fill="none">
  <path d="M95.6667 0V5.61964H51.3766V115.698H44.2902V5.61964H0V0H95.6667Z" fill="#707885"/>
  <rect x="156.287" y="0.913221" width="91.6997" height="3.3474" fill="#707885" stroke="#707885" stroke-width="3"/>
  <rect x="183.44" y="55.546" width="37.3942" height="3.3474" fill="#707885" stroke="#707885" stroke-width="3"/>
  <rect x="156.287" y="111.737" width="91.6997" height="3.3474" fill="#707885" stroke="#707885" stroke-width="3"/>
  <path d="M357.67 114.703C345.355 114.703 335.009 112.373 326.63 107.712C318.378 103.052 312.792 96.9094 309.872 89.2838L315.775 86.4241C318.187 93.3084 323.012 98.8158 330.248 102.946C337.611 107.077 346.815 109.142 357.86 109.142C369.286 109.142 378.046 106.865 384.14 102.311C390.361 97.7567 393.471 91.9316 393.471 84.8355C393.471 78.2689 390.424 73.1322 384.33 69.4253C378.237 65.7184 369.096 62.3292 356.908 59.2577C351.449 57.8809 347.006 56.7158 343.578 55.7626C340.277 54.7035 336.596 53.3267 332.533 51.6321C328.598 49.9375 325.487 48.137 323.202 46.2306C321.044 44.3241 319.203 41.9411 317.68 39.0815C316.156 36.2219 315.394 32.9916 315.394 29.3906C315.394 20.9176 319.139 13.9274 326.63 8.42C334.12 2.80667 343.642 0 355.194 0C365.351 0 373.92 2.1712 380.903 6.51359C388.012 10.7501 393.217 16.2575 396.518 23.0358L390.805 25.7366C384.584 12.2858 372.714 5.56037 355.194 5.56037C345.038 5.56037 336.977 7.89043 331.01 12.5506C325.17 17.1048 322.25 22.6651 322.25 29.2317C322.25 32.7268 323.075 35.7982 324.725 38.446C326.376 40.9879 329.105 43.2121 332.914 45.1185C336.85 47.0249 340.468 48.5606 343.769 49.7257C347.069 50.7848 351.83 52.1616 358.051 53.8562C363.51 55.339 367.953 56.6629 371.381 57.8279C374.936 58.9929 378.744 60.4757 382.807 62.2762C386.869 64.0767 390.043 65.9831 392.328 67.9955C394.614 69.9019 396.518 72.2849 398.041 75.1445C399.565 78.0041 400.327 81.1815 400.327 84.6766C400.327 93.6791 396.454 100.934 388.71 106.441C381.093 111.949 370.746 114.703 357.67 114.703Z" fill="#707885"/>
</svg>